<?xml version="1.0" encoding="UTF-8" standalone="no"?>
<!DOCTYPE svg PUBLIC "-//W3C//DTD SVG 1.1//EN" "http://www.w3.org/Graphics/SVG/1.1/DTD/svg11.dtd">
<svg version="1.1" xmlns="http://www.w3.org/2000/svg" xmlns:xlink="http://www.w3.org/1999/xlink" preserveAspectRatio="xMidYMid meet" width="45" height="45" viewBox="2 2 73.6231884057971 73.6231884057971"><defs><path d="M35.13 49.86L42.49 49.86L42.49 57.22L35.13 57.22L35.13 49.86ZM35.13 20.41L42.49 20.41L42.49 42.49L35.13 42.49L35.13 20.41ZM2 38.81C2 59.06 18.57 75.62 38.81 75.62C59.06 75.62 75.62 59.06 75.62 38.81C75.62 18.57 59.06 2 38.81 2C18.57 2 2 18.57 2 38.81ZM9.36 38.81C9.36 22.61 22.61 9.36 38.81 9.36C55.01 9.36 68.26 22.61 68.26 38.81C68.26 55.01 55.01 68.26 38.81 68.26C22.61 68.26 9.36 55.01 9.36 38.81Z" id="KzBZMb3eKJ"></path></defs><g visibility="visible"><g><use xlink:href="#KzBZMb3eKJ" opacity="1" fill="#ffb0a7" fill-opacity="1"></use><g><use xlink:href="#KzBZMb3eKJ" opacity="1" fill-opacity="0" stroke="#000000" stroke-width="0" stroke-opacity="0"></use></g></g></g></svg>